<?xml version='1.0' encoding='utf-8'?>
<svg xmlns="http://www.w3.org/2000/svg" width="3e3" height="3e3" version="1.1" viewBox="0 0 793.75 793.75"> <g transform="translate(0 496.75)" fill-rule="nonzero"> <rect x="-5.0959e-14" y="-496.75" width="793.75" height="793.75" ry="0" fill="#4f2b13" style="paint-order:markers stroke fill"/> <path d="m762 82.309-107.35 65.012-154.21-114.9 21.167-96.762 66.524-90.714 52.917-152.7 102.81 42.333 43.845 120.95z" fill="#593115" style="paint-order:markers stroke fill"/> <path d="m3.0238-306.25 15.119-36.286 57.452-46.869-27.214-57.452 81.643-31.75 72.571 39.31 60.476-46.869 243.42 92.226-139.1 83.155-4.5357 63.5-78.619 24.19-60.476 60.476-120.95 15.119z" fill="#593115" style="paint-order:markers stroke fill"/> <path d="m560.92 183.22-48.381 9.0714-13.607 11.339 17.387 5.2917 86.935-5.2917 4.5357-16.631z" fill="#7a4c29" style="paint-order:markers stroke fill"/> <path d="m698.92 201.38-47.919 17.465 6.8273 10.487 20.618 10.827 65.332-7.7118 4.8388-19.771z" fill="#7a4c29" style="paint-order:markers stroke fill"/> <path d="m187.48 108.38-31.75 11.339-9.8274 22.679 27.97 16.631 41.577-9.8274-1.5119-29.482z" fill="#7a4c29" style="paint-order:markers stroke fill"/> <path d="m103.57 227.06-38.554-2e-5 -54.429 8.3155-10.583 13.607 24.946 11.339 86.179 1.5119 30.238-15.119z" fill="#7a4c29" style="paint-order:markers stroke fill"/> <path d="m337.15 131.81-13.607 8.3155 6.8036 9.0714 19.655-1.5119z" fill="#7a4c29" style="paint-order:markers stroke fill"/> <path d="m660.7 54.706-12.851 3.7798-2.2679 13.607 15.875 6.8036 7.5595-6.0476 4.5357-11.339z" fill="#7a4c29" style="paint-order:markers stroke fill"/> <path d="m770.32-184.17-12.851 3.7798-2.2678 13.607 15.875 6.8036 18.143-3.0238-9.8274-12.851z" fill="#7a4c29" style="paint-order:markers stroke fill"/> <path d="m23.435-37.52-11.339 10.583 8.3155 9.0714 15.875-3.7798z" fill="#7a4c29" style="paint-order:markers stroke fill"/> <path d="m433.92 145.42 21.923 2.2679-2.2678 7.5595-27.97 2.2678z" fill="#7a4c29" style="paint-order:markers stroke fill"/> <path d="m295.58 180.19h-37.042l-25.702 15.119-18.143-0.75594-9.8274 15.875 38.554 9.0714 52.917-0.75596 25.702 3.0238 18.143-21.167z" fill="#7a4c29" style="paint-order:markers stroke fill"/> <path d="m475.49 224.8-12.851 3.7798-2.2678 13.607 15.875 6.8036 7.5595-6.0476 4.5357-11.339z" fill="#7a4c29" style="paint-order:markers stroke fill"/> <path d="m372.68 245.21 21.923 2.2679-2.2678 7.5595-27.97 2.2679z" fill="#7a4c29" style="paint-order:markers stroke fill"/> <path d="m38.554 199.09-13.607 8.3155 6.8036 9.0714 19.655-1.5119z" fill="#7a4c29" style="paint-order:markers stroke fill"/> <path d="m30.788 57.493 12.851 3.7798 2.2679 13.607-15.875 6.8036-18.143-3.0238 9.8274-12.851z" fill="#7a4c29" style="paint-order:markers stroke fill"/> <path d="m626.68 247.47-16.631 9.0714 14.363 7.5595 15.875 2.2679z" fill="#7a4c29" style="paint-order:markers stroke fill"/> <path d="m551.09 270.91-37.042 14.363 52.917-5.2917z" fill="#7a4c29" style="paint-order:markers stroke fill"/> <path d="m758.46 270.82-19.243 2.1382-3.2072 9.6217 5.3454 5.3454 13.898-4.2763h13.898l10.691-5.3454 3.2072-8.5526z" fill="#7a4c29" style="paint-order:markers stroke fill"/> <path d="m272.93 270.76-25.452 3.3306-11.965 15.378 14.391 5.7566 18.709-5.7566z" fill="#7a4c29" style="paint-order:markers stroke fill"/> <path d="m165.8 177.3-25.452 3.3306-11.965 15.378 14.391 5.7566 18.709-5.7566z" fill="#7a4c29" style="paint-order:markers stroke fill"/> <path d="m716.43 174.24 21.923 2.2679-2.2678 7.5595-27.97 2.2678z" fill="#7a4c29" style="paint-order:markers stroke fill"/> <path d="m774.28 168.36-16.631 9.0714 14.363 7.5595 15.875 2.2678z" fill="#7a4c29" style="paint-order:markers stroke fill"/> <path d="m26.195 145.78 13.607 8.3155-6.8036 9.0714-19.655-1.5119z" fill="#7a4c29" style="paint-order:markers stroke fill"/> <path d="m530.68 142.4-11.339-1.5119-7.5595 13.607 10.583 6.0476 12.851-6.0476z" fill="#7a4c29" style="paint-order:markers stroke fill"/> <path d="m442.99-23.913-48.381 9.0714-13.607 11.339 17.387 5.2917 86.935-5.2917 4.5357-16.631z" fill="#7a4c29" style="paint-order:markers stroke fill"/> <path d="m242.32-14.818-47.919 17.465 6.8273 10.487 20.618 10.827 65.332-7.7118 4.8388-19.771z" fill="#7a4c29" style="paint-order:markers stroke fill"/> <path d="m601.74-11.062-31.75 11.339-9.8274 22.679 27.97 16.631 41.577-9.8274-1.5119-29.482z" fill="#7a4c29" style="paint-order:markers stroke fill"/> <path d="m439.21 63.778-38.554-2e-5 -54.429 8.3155-10.583 13.607 24.946 11.339 86.179 1.5119 30.238-15.119z" fill="#7a4c29" style="paint-order:markers stroke fill"/> <path d="m337.15-58.687-13.607 8.3155 6.8036 9.0714 19.655-1.5119z" fill="#7a4c29" style="paint-order:markers stroke fill"/> <path d="m379.49-117.65-12.851 3.7798-2.2679 13.607 15.875 6.8036 7.5595-6.0476 4.5357-11.339z" fill="#7a4c29" style="paint-order:markers stroke fill"/> <path d="m558.65-107.07-12.851 3.7798-2.2678 13.607 15.875 6.8036 18.143-3.0238-9.8274-12.851z" fill="#7a4c29" style="paint-order:markers stroke fill"/> <path d="m65.768-94.972-11.339 10.583 8.3155 9.0714 15.875-3.7798z" fill="#7a4c29" style="paint-order:markers stroke fill"/> <path d="m483.81-72.294 21.923 2.2679-2.2678 7.5595-27.97 2.2678z" fill="#7a4c29" style="paint-order:markers stroke fill"/> <path d="m475.49 34.295-12.851 3.7798-2.2678 13.607 15.875 6.8036 7.5595-6.0476 4.5357-11.339z" fill="#7a4c29" style="paint-order:markers stroke fill"/> <path d="m301.62 35.051 21.923 2.2679-2.2678 7.5595-27.97 2.2679z" fill="#7a4c29" style="paint-order:markers stroke fill"/> <path d="m105.08 79.653-13.607 8.3155 6.8036 9.0714 19.655-1.5119z" fill="#7a4c29" style="paint-order:markers stroke fill"/> <path d="m191.05 57.493 12.851 3.7798 2.2679 13.607-15.875 6.8036-18.143-3.0238 9.8274-12.851z" fill="#7a4c29" style="paint-order:markers stroke fill"/> <path d="m678.09 2.5454-16.631 9.0714 14.363 7.5595 15.875 2.2679z" fill="#7a4c29" style="paint-order:markers stroke fill"/> <path d="m641.8 118.21-37.042 14.363 52.917-5.2917z" fill="#7a4c29" style="paint-order:markers stroke fill"/> <path d="m549.82 83.347-19.243 2.1382-3.2072 9.6217 5.3454 5.3454 13.898-4.2763h13.898l10.691-5.3454 3.2072-8.5526z" fill="#7a4c29" style="paint-order:markers stroke fill"/> <path d="m272.93 80.263-25.452 3.3306-11.965 15.378 14.391 5.7566 18.709-5.7566z" fill="#7a4c29" style="paint-order:markers stroke fill"/> <path d="m158.24 20.062-25.452 3.3306-11.965 15.378 14.391 5.7566 18.709-5.7566z" fill="#7a4c29" style="paint-order:markers stroke fill"/> <path d="m745.15-14.752 21.923 2.2679-2.2678 7.5595-27.97 2.2678z" fill="#7a4c29" style="paint-order:markers stroke fill"/> <path d="m745.55 53.457-16.631 9.0714 14.363 7.5595 15.875 2.2678z" fill="#7a4c29" style="paint-order:markers stroke fill"/> <path d="m116.91-15.996 13.607 8.3155-6.8036 9.0714-19.655-1.5119z" fill="#7a4c29" style="paint-order:markers stroke fill"/> <path d="m630.46-69.27-11.339-1.5119-7.5595 13.607 10.583 6.0476 12.851-6.0476z" fill="#7a4c29" style="paint-order:markers stroke fill"/> <path d="m710.6-293.03-48.381 9.0714-13.607 11.339 17.387 5.2917 86.935-5.2917 4.5357-16.631z" fill="#7a4c29" style="paint-order:markers stroke fill"/> <path d="m307.34-202.29-47.919 17.465 6.8273 10.487 20.618 10.827 65.332-7.7118 4.8388-19.771z" fill="#7a4c29" style="paint-order:markers stroke fill"/> <path d="m698.5-162.25-31.75 11.339-9.8274 22.679 27.97 16.631 41.577-9.8274-1.5119-29.482z" fill="#7a4c29" style="paint-order:markers stroke fill"/> <path d="m487.59-258.26-38.554-2e-5 -54.429 8.3155-10.583 13.607 24.946 11.339 86.179 1.5119 30.238-15.119z" fill="#7a4c29" style="paint-order:markers stroke fill"/> <path d="m131.54-202.32-13.607 8.3155 6.8036 9.0714 19.655-1.5119z" fill="#7a4c29" style="paint-order:markers stroke fill"/> <path d="m247.95-246.16-12.851 3.7798-2.2679 13.607 15.875 6.8036 7.5595-6.0476 4.5357-11.339z" fill="#7a4c29" style="paint-order:markers stroke fill"/> <path d="m669.02-373.16-12.851 3.7798-2.2678 13.607 15.875 6.8036 18.143-3.0238-9.8274-12.851z" fill="#7a4c29" style="paint-order:markers stroke fill"/> <path d="m121.71-303.62-11.339 10.583 8.3155 9.0714 15.875-3.7798z" fill="#7a4c29" style="paint-order:markers stroke fill"/> <path d="m498.93-279.42 21.923 2.2679-2.2678 7.5595-27.97 2.2678z" fill="#7a4c29" style="paint-order:markers stroke fill"/> <path d="m201.84-79.853h-37.042l-25.702 15.119-18.143-0.75594-9.8274 15.875 38.554 9.0714 52.917-0.75596 25.702 3.0238 18.143-21.167z" fill="#7a4c29" style="paint-order:markers stroke fill"/> <path d="m475.49-148.65-12.851 3.7798-2.2678 13.607 15.875 6.8036 7.5595-6.0476 4.5357-11.339z" fill="#7a4c29" style="paint-order:markers stroke fill"/> <path d="m301.62-147.89 21.923 2.2679-2.2678 7.5595-27.97 2.2679z" fill="#7a4c29" style="paint-order:markers stroke fill"/> <path d="m21.923-225.75-13.607 8.3155 6.8036 9.0714 19.655-1.5119z" fill="#7a4c29" style="paint-order:markers stroke fill"/> <path d="m141.16-140.57 12.851 3.7798 2.2679 13.607-15.875 6.8036-18.143-3.0238 9.8274-12.851z" fill="#7a4c29" style="paint-order:markers stroke fill"/> <path d="m626.68-125.97-16.631 9.0714 14.363 7.5595 15.875 2.2679z" fill="#7a4c29" style="paint-order:markers stroke fill"/> <path d="m773.34-96.484-37.042 14.363 52.917-5.2917z" fill="#7a4c29" style="paint-order:markers stroke fill"/> <path d="m578.55-178.21-19.243 2.1382-3.2072 9.6217 5.3454 5.3454 13.898-4.2763h13.898l10.691-5.3454 3.2072-8.5526z" fill="#7a4c29" style="paint-order:markers stroke fill"/> <path d="m241.18-129.89-25.452 3.3306-11.965 15.378 14.391 5.7566 18.709-5.7566z" fill="#7a4c29" style="paint-order:markers stroke fill"/> <path d="m53.923-303.49-25.452 3.3306-11.965 15.378 14.391 5.7566 18.709-5.7566z" fill="#7a4c29" style="paint-order:markers stroke fill"/> <path d="m677.12-217.35 21.923 2.2679-2.2678 7.5595-27.97 2.2678z" fill="#7a4c29" style="paint-order:markers stroke fill"/> <path d="m449.22-205.08-16.631 9.0714 14.363 7.5595 15.875 2.2678z" fill="#7a4c29" style="paint-order:markers stroke fill"/> <path d="m23.171-183.82 13.607 8.3155-6.8036 9.0714-19.655-1.5119z" fill="#7a4c29" style="paint-order:markers stroke fill"/> <path d="m604.76-237.09-11.339-1.5119-7.5595 13.607 10.583 6.0476 12.851-6.0476z" fill="#7a4c29" style="paint-order:markers stroke fill"/> <path d="m142.12-491.09-48.381 9.0714-13.607 11.339 17.387 5.2917 86.935-5.2917 4.5357-16.631z" fill="#7a4c29" style="paint-order:markers stroke fill"/> <path d="m411.66-485.02-47.919 17.465 6.8273 10.487 20.618 10.827 65.332-7.7118 4.8388-19.771z" fill="#7a4c29" style="paint-order:markers stroke fill"/> <path d="m683.38-485.8-31.75 11.339-9.8274 22.679 27.97 16.631 41.577-9.8274-1.5119-29.482z" fill="#7a4c29" style="paint-order:markers stroke fill"/> <path d="m142.87-374.67-38.554-2e-5 -54.429 8.3155-10.583 13.607 24.946 11.339 86.179 1.5119 30.238-15.119z" fill="#7a4c29" style="paint-order:markers stroke fill"/> <path d="m294.82-439.69-13.607 8.3155 6.8036 9.0714 19.655-1.5119z" fill="#7a4c29" style="paint-order:markers stroke fill"/> <path d="m232.83-397.35-12.851 3.7798-2.2679 13.607 15.875 6.8036 7.5595-6.0476 4.5357-11.339z" fill="#7a4c29" style="paint-order:markers stroke fill"/> <path d="m496.66-486.56-12.851 3.7798-2.2678 13.607 15.875 6.8036 18.143-3.0238-9.8274-12.851z" fill="#7a4c29" style="paint-order:markers stroke fill"/> <path d="m218.47-445.73-11.339 10.583 8.3155 9.0714 15.875-3.7798z" fill="#7a4c29" style="paint-order:markers stroke fill"/> <path d="m569.99-457.83 21.923 2.2679-2.2678 7.5595-27.97 2.2678z" fill="#7a4c29" style="paint-order:markers stroke fill"/> <path d="m370.42-341.41h37.042l25.702 15.119 18.143-0.75594 9.8274 15.875-38.554 9.0714-52.917-0.75596-25.702 3.0238-18.143-21.167z" fill="#7a4c29" style="paint-order:markers stroke fill"/> <path d="m495.15-393.57-12.851 3.7798-2.2678 13.607 15.875 6.8036 7.5595-6.0476 4.5357-11.339z" fill="#7a4c29" style="paint-order:markers stroke fill"/> <path d="m345.47-388.28 21.923 2.2679-2.2678 7.5595-27.97 2.2679z" fill="#7a4c29" style="paint-order:markers stroke fill"/> <path d="m38.554-405.67-13.607 8.3155 6.8036 9.0714 19.655-1.5119z" fill="#7a4c29" style="paint-order:markers stroke fill"/> <path d="m192.56-329.55 12.851 3.7798 2.2679 13.607-15.875 6.8036-18.143-3.0238 9.8274-12.851z" fill="#7a4c29" style="paint-order:markers stroke fill"/> <path d="m768.8-369.38-16.631 9.0714 14.363 7.5595 15.875 2.2679z" fill="#7a4c29" style="paint-order:markers stroke fill"/> <path d="m650.87-318.73-37.042 14.363 52.917-5.2917z" fill="#7a4c29" style="paint-order:markers stroke fill"/> <path d="m549.82-330.91-19.243 2.1382-3.2072 9.6217 5.3454 5.3454 13.898-4.2763h13.898l10.691-5.3454 3.2072-8.5526z" fill="#7a4c29" style="paint-order:markers stroke fill"/> <path d="m285.02-332.49-25.452 3.3306-11.965 15.378 14.391 5.7566 18.709-5.7566z" fill="#7a4c29" style="paint-order:markers stroke fill"/> <path d="m37.292-453.16-25.452 3.3306-11.965 15.378 14.391 5.7566 18.709-5.7566z" fill="#7a4c29" style="paint-order:markers stroke fill"/> <path d="m618.15-415.41 21.923 2.2679-2.2678 7.5595-27.97 2.2678z" fill="#7a4c29" style="paint-order:markers stroke fill"/> <path d="m449.22-436.4-16.631 9.0714 14.363 7.5595 15.875 2.2678z" fill="#7a4c29" style="paint-order:markers stroke fill"/> <path d="m116.91-430.26 13.607 8.3155-6.8036 9.0714-19.655-1.5119z" fill="#7a4c29" style="paint-order:markers stroke fill"/> <path d="m786.19-488.07-11.339-1.5119-7.5595 13.607 10.583 6.0476 12.851-6.0476z" fill="#7a4c29" style="paint-order:markers stroke fill"/> </g> </svg>